<?xml version="1.0" standalone="no"?>
<!DOCTYPE svg PUBLIC "-//W3C//DTD SVG 20010904//EN"
 "http://www.w3.org/TR/2001/REC-SVG-20010904/DTD/svg10.dtd">
<svg version="1.0" xmlns="http://www.w3.org/2000/svg"
 width="464.000000pt" height="450.000000pt" viewBox="0 0 464.000000 450.000000"
 preserveAspectRatio="xMidYMid meet">

<g transform="translate(0.000000,450.000000) scale(0.100000,-0.100000)"
fill="#FFFFFF" stroke="none">
<path d="M2375 4473 c-880 -75 -1579 -448 -1987 -1058 -71 -107 -184 -335
-228 -460 -47 -134 -86 -293 -111 -455 -20 -123 -23 -184 -24 -395 0 -265 8
-349 51 -545 114 -511 396 -899 854 -1172 260 -155 575 -260 960 -321 182 -29
682 -31 885 -4 334 45 587 126 839 268 152 86 416 250 416 259 0 13 -179 230
-190 230 -5 0 -40 -20 -77 -44 -298 -192 -696 -338 -1076 -395 -392 -59 -654
-49 -1003 39 -365 93 -671 257 -899 485 -251 251 -389 545 -441 938 -22 166
-15 483 15 650 121 685 564 1193 1262 1451 297 109 574 160 874 158 273 -1
491 -37 745 -124 430 -147 775 -432 915 -755 106 -244 131 -522 76 -843 -48
-280 -152 -499 -320 -674 -67 -69 -201 -176 -221 -176 -9 0 -83 185 -105 263
-9 32 -14 64 -12 71 3 8 82 82 176 165 186 166 301 297 301 344 0 23 -7 31
-35 43 -39 16 -102 18 -137 5 -13 -5 -111 -77 -218 -159 -107 -83 -196 -150
-197 -148 -7 6 71 299 113 429 26 78 91 253 145 388 55 136 99 254 99 263 0
44 -148 74 -221 43 -35 -14 -38 -20 -88 -163 -83 -235 -472 -1401 -530 -1590
-52 -169 -52 -171 -36 -210 37 -93 146 -99 214 -12 30 38 96 178 134 285 l33
92 69 -142 c110 -226 183 -284 342 -275 81 4 200 57 299 132 83 62 217 204
282 299 124 180 227 445 269 692 23 137 26 498 5 615 -84 470 -302 835 -662
1110 -285 217 -667 359 -1074 399 -100 10 -385 12 -481 4z"/>
<path d="M1166 3282 l-38 -17 -95 -290 c-99 -305 -343 -1098 -412 -1345 -64
-225 -70 -299 -30 -336 70 -63 180 49 275 284 l37 90 37 -56 c69 -106 175
-196 274 -235 72 -28 176 -27 240 2 l49 21 26 -23 c88 -81 196 -129 292 -130
54 -1 73 4 113 27 131 77 162 274 81 512 -48 139 -65 222 -65 315 0 90 15 139
95 299 51 103 56 120 52 164 -7 81 -66 116 -194 116 -54 0 -67 -4 -93 -27 -27
-25 -36 -50 -85 -238 -77 -298 -214 -652 -274 -708 -14 -14 -53 -43 -85 -66
-78 -54 -118 -55 -168 -5 -59 59 -118 192 -118 267 0 7 65 70 144 140 234 207
315 301 302 352 -7 29 -36 36 -97 25 -82 -16 -136 -49 -314 -195 -63 -53 -115
-92 -115 -88 0 20 55 212 97 338 66 200 124 354 209 556 41 97 74 188 74 202
0 55 -133 86 -214 49z m594 -1598 c11 -49 20 -109 20 -133 0 -43 0 -43 -22
-27 -13 8 -42 28 -65 43 -23 16 -42 31 -43 34 0 12 81 181 86 177 2 -3 13 -45
24 -94z"/>
<path d="M3015 2534 c-16 -2 -77 -9 -135 -15 -151 -16 -399 -72 -444 -101 -96
-62 -77 -194 30 -214 25 -5 86 0 173 15 74 12 136 20 138 18 2 -3 -93 -93
-211 -201 -253 -232 -388 -372 -436 -452 -42 -71 -48 -147 -14 -204 46 -79
117 -99 288 -81 249 27 429 77 492 136 29 28 34 39 34 78 0 38 -5 49 -30 70
-42 36 -125 51 -244 44 l-99 -6 64 56 c35 31 148 140 250 242 203 203 355 386
365 437 13 69 -40 156 -104 174 -36 10 -57 10 -117 4z"/>
</g>
</svg>
